<svg xmlns="http://www.w3.org/2000/svg" xmlns:xlink="http://www.w3.org/1999/xlink" height="800px" width="800px" version="1.1" id="Layer_1" viewBox="0 0 512 512" xml:space="preserve">
<circle style="fill:#0F7986;" cx="256" cy="256" r="256"/>
<path style="fill:#15BDB2;" d="M247.872,56.633c88.166,0,159.636,71.47,159.636,159.635c0,88.164-71.47,159.636-159.636,159.636  c-88.163,0-159.635-71.472-159.635-159.636C88.237,128.104,159.709,56.633,247.872,56.633z"/>
<path style="fill:#21D0C3;" d="M247.873,56.633c63.232,0,117.872,36.764,143.723,90.083c3.892,14.475,5.98,29.689,5.98,45.395  c0,96.323-78.086,174.411-174.414,174.411c-14.335,0-28.261-1.743-41.591-5.004c-55.068-25.177-93.334-80.742-93.334-145.25  C88.237,128.103,159.71,56.633,247.873,56.633z"/>
<path style="fill:#ECF0F1;" d="M245.262,116.667c-0.097,5.73,1.892,3.804,3.783,6.63c-0.866,2.415-1.021,0.534-1.99,3.027  c-0.87,2.089,0.204,0.208-0.36,3.848c1.484,0.081,3.679-0.448,5.624-0.616c2.762-0.244,2.71-0.493,3.68-3.315  c-1.532-1.882-3.067-3.764-4.65-5.645c-1.997-3.032,0-0.946-0.614-3.483c-0.46-0.9-0.87-1.796-1.277-2.701  C246.799,115.319,247.055,115.071,245.262,116.667L245.262,116.667z M347.618,91.536c29.684,23.787,50.691,57.95,57.508,96.996  c-0.48-0.742-0.971-1.711-1.466-3.149c-3.118,1.023-3.219,1.105-6.9,1.72l-0.162,0.224c-1.465,2.085,0.073,1.202-2.499,3.376  c-3.065,2.579-5.06,6.098-8.481,8.183c-0.411,3.646,0.304,4.464-0.614,8.802c-0.359,1.597-2.147,5.893-4.245,5.568  c-0.664-0.123-3.475-7.083-4.139-9.005c-1.126-3.275-2.403-5.69-3.219-9.454c-0.458-2.009-0.768-5.853-1.227-7.206  c-2.199,0.326-2.098,1.724-4.194,0.249c-1.48-1.067-0.815-1.719-1.635-3.315c-1.737-1.638-3.526-3.275-5.313-4.911  c-1.382-0.449-6.698,0.325-8.948,0.081c-4.037-0.371-4.39-0.123-6.795-3.357c-4.245,0.208-3.886,1.799-8.027-1.76  c-2.71-2.293-2.197-5.975-6.132-3.888c-0.151,3.355,1.484,4.097,2.964,5.649c1.072,1.191,2.402,2.009,2.962,3.601  c0.053,0.045,0.31,1.556,0.362,1.76c3.831,0.249,4.752-1.594,6.847-3.15c2.046,1.922,0.05,2.254,3.016,3.764  c2.349,1.191,1.89,0.494,3.422,2.415c0.768,2.579-5.263,9.576-7.259,10.847c-1.531,0.982-2.349,0.408-3.729,1.551  c-2.042,1.724,0.256,1.475-3.319,2.787c-3.834,1.393-7.621,4.338-11.654,4.582c-0.87-2.374-1.739-4.785-2.606-7.201  c-2.558-8.228-2.453-5.034-5.061-9.291c-1.227-1.844-0.716-3.031-1.535-4.667c-0.564-1.227-1.428-1.76-2.198-3.271  c-1.174-2.334-2.553-5.975-5.263-5.608c-0.564,1.841,2.505,8.06,3.27,9.576c0.768,1.515,1.993,2.17,2.352,4.342  c0.509,2.984-0.104,2.615,1.531,4.618c3.425,4.134-0.152,3.402,5.164,7.449c3.984,3.031,2.962,3.93,4.651,7.983  c2.606,0.734,10.373-2.741,11.701-1.719c1.584,2.821-1.837,7.323-2.708,9.779c-2.862,8.228-7.872,8.105-11.705,14.407  c-2.092,3.4-3.066,3.848-5.007,7.942c-2.2,4.622,4.446,17.433,0.461,22.796c-0.87,1.226-3.68,1.964-7.207,5.69  c-3.732,4.05,0.102,3.352-1.332,10.105c-1.122,1.557-2.501,1.639-3.882,2.746c-0.51,1.594-0.102,2.859-0.971,4.827  c-0.92,2.374-1.072,1.105-2.403,3.031c-0.97,1.511-0.866,2.125-1.992,3.518c-0.971,1.271-1.484,1.634-2.4,2.456  c-4.45,4.094-14.008,4.215-14.823,3.641c-2.253-1.922-0.716-2.415-1.277-5.116c-0.546-2.375-1.805-4.362-2.858-6.196l-0.107-0.191  c-0.509-0.896-0.971-1.76-1.229-2.578c-1.84-5.813-1.173-10.228-4.392-16.121c-4.038-7.616,2.246-11.583,1.99-15.88  c-0.102-1.146-0.509-1.841-0.613-2.746c-0.767-4.746-1.225-9.002-4.393-12.728c-3.476-4.049-3.018-2.619-1.892-9.286  c1.43-7.654-1.84-5.691-6.438-5.893c-2.253-6.957-6.647-3.565-11.04-1.515c-2.761,1.266-3.783-0.367-6.903,0.08  c-6.951,0.94-1.48,3.931-10.785-3.437c-3.884-3.072-1.277-1.516-3.578-5.36c-0.766-1.393-3.118-3.235-4.193-4.628  c-3.523-4.419,0.667-8.88,0.054-13.954c-1.075-9.413-2.606-1.23,2.657-12.605c2.761-6.057,6.951-6.098,8.025-8.802  c0.92-2.411,0.304-4.134,2.044-6.342c1.534-1.801,3.731-1.434,4.6-4.257c1.225-3.478-1.125-3.926-3.68-4.012  c-1.072-3.641-1.072-2.741-0.255-6.098c0.461-1.881,0.051-2.786,0.461-4.667c1.022-4.705,9.045-0.037,11.348-1.964  c1.072-2.004,1.226-3.966,0-5.893c-1.281-1.922-2.963-1.679-3.834-3.518c1.942-1.308,0.509-0.164,2.199-0.534  c1.991-0.448,1.736-1.022,4.086-1.47c2.096-0.411,3.429-2.334,5.47-3.641c2.912-1.882,1.531-3.565,5.06-4.135  c5.675-0.985,1.992-0.818,2.609-6.101c0.864-0.325,1.684-0.697,2.501-1.063c1.791,2.334-0.457,1.393,1.687,2.945  c0.562-0.326,1.227-0.652,1.84-0.978c-0.307-2.541-1.48-2.049-2.249-5.197c-2.811,0.448-3.833,2.823-6.081,1.964  c-2.198-0.819-2.299-3.971-2.198-6.59c0.815-1.964,4.904-3.027,6.488-3.52c2.559-0.858,2.2-2.578,4.552-4.911  c3.067-3.071,0.815,0.041,2.299-3.926c3.373-0.126,1.789-0.248,3.782-1.271l0.102-0.04l0.204-0.081  c1.179-0.534,2.711-0.657,4.245-1.186c5.62-1.881,7.919-0.94,12.008,0.734c3.169,1.31,12.728,1.352,13.444,5.365  c-2.299,2.41-4.497,0.652-7.82,0.859c0.613,3.107,0.868,3.107,3.68,3.966c0.461-1.473-0.206-0.896,0.562-1.841  c0.922,0.204,1.842,0.367,2.759,0.534c0.924-3.153,1.996-2.701,5.115-3.071c-0.513-2.172-1.076-1.556,0.1-3.276  c3.223,0.33,0.613,0.045,2.198,2.624c2.249-0.288,4.447-2.787,7.565-3.112c1.942-0.204,1.841,0.533,4.598,0.244  c2.252-0.244,2.148-1.063,4.399-0.122c0.815-1.515,0-1.475,1.993-1.841c3.064-0.534,5.723,1.348,8.686,1.76  c-2.195-2.702-4.292-2.172-1.584-6.672c3.424-0.697,3.732-0.204,5.214,2.374C346.846,92.253,347.204,91.78,347.618,91.536  L347.618,91.536z M304.962,141.469c-1.584-2.208-1.483-3.316-4.55-3.397c-1.224,1.312-2.656,3.275-3.321,5.279  c-1.022,3.031-0.306,0.94-0.206,4.217c-0.051,0.122,0,0.288,0,0.411c-0.051,1.962-0.513-0.371-0.207,1.432  c2.404-0.493,0.565-0.451,2.352-1.026c1.687-0.575,6.851-2.13,8.333-1.76c3.524,0.819,6.491,3.605,10.48,0.819  c-0.207-3.56-4.5-4.911-7.463-6.467c0.154-3.271,1.022-0.693,0.815-3.845c-1.022-0.041-1.635-0.204-2.606,0.204  c-2.299,1.022-1.022,1.31-1.022,1.678c0.103,1.76,2.299-0.366-0.051,1.804C306.855,141.386,305.78,141.386,304.962,141.469  L304.962,141.469z M278.64,144.155c1.413,0.904,3.146,1.593,4.193,2.508c1.328,3.642-0.357,1.882,2.249,5.691  c1.483,2.044,1.176,3.518,2.707,4.663c2.815-0.366,0.36,0.453,2.097-1.266c0.307-0.326,1.177-1.353,1.428-1.76  c-0.917-1.392-1.479-1.515-2.297-2.949c3.166-4.212,4.549-1.799,5.314,0.987c1.996,7.734,5.059,5.481,7.618,5.111  c2.606-0.366,0.353,0.085,2.707,0.697c2.249,0.574,1.174,0,2.759-0.406c5.367-1.312,1.231,9.086,0.667,10.232  c-2.912,0.365-2.35-0.286-4.45-0.494c-4.241-0.448,0.256,2.541-9.76-0.737c-9.61-3.067-7.563-3.764-9.558,2.908  c-2.199-0.163-2.094-0.574-4.138-1.268c-0.78-0.297-1.23-0.456-1.536-0.546l-0.102-0.032c-0.815-0.285,0-0.037-1.686-1.634  c-1.484-1.393-5.111-1.719-7.67-3.071c0-2.208,1.941-4.049-0.408-6.672c-0.766-0.204-11.653,0.249-13.39,0.616  c-3.526,0.737-4.142,3.723-8.997,3.071c-2.657-0.37-1.736-0.123-2.403-1.679c0.87-0.859,0-0.411,1.486-0.94  c0.561-0.204,0.767-0.123,1.328-0.204c7.869-1.189,3.831-5.161,8.738-8.964c4.089-3.275,0.87,0.041,3.119-3.931  c2.761-0.244,2.402,1.105,4.753-0.04c1.945-0.982,1.328-1.841,4.089-1.926c2.454,2.459,1.941,3.931,5.929,5.812  c1.584,0.742,2.554,1.15,3.576,2.501c1.84,2.619,0.257,1.76,0.975,3.56c0.152-0.081,0.353-0.168,0.56-0.244l0.102-0.05  c2.149-1.027-1.073-1.352,2.402-4.414c-1.018-0.738-1.762-1.256-2.402-1.622l-0.102-0.057c-2.708-1.593-1.635-0.123-5.111-4.459  c-0.92-1.231-1.177-1.308-1.122-3.193c2.501-0.449,2.963,1.351,5.211,3.355c0.306,0.288,0.664,0.533,1.022,0.776L278.64,144.155  L278.64,144.155z M325.868,140.156c0.357,4.998,3.319,6.92,5.42,9.208c-0.257,2.375-0.819,1.76-0.768,5.076  c2.505,1.804,4.343,2.904,7.615,2.009c0.458-4.012-0.818-3.81-2.043-6.55c0.203-0.33,0.766-0.737,0.866-0.818  c0.92-1.226,0.463,0.488,0.92-1.597c-2.401-0.774-6.288-3.234-6.59-6.464c1.174-0.939,0.815-0.37,1.682-0.939  c1.892-1.231,0.462,0.651,1.584-1.434c-0.966-1.881-2.043-2.212-4.393-1.271C329.14,137.786,326.43,139.708,325.868,140.156  L325.868,140.156z M333.226,254.345c-2.246,1.145-2.556,3.768-4.241,5.237c-1.84,1.679-4.296,0.904-5.01,4.012  c-0.919,3.885,1.535,2.701-1.177,7.776c-0.968,1.88-1.021,6.586,0.462,7.982c4.446,4.293,6.85-6.55,7.871-9.948  c0.767-2.414,1.484-5.156,2.299-7.409C334.251,259.582,335.424,257.455,333.226,254.345L333.226,254.345z"/>
<path style="fill:#9D9E9E;" d="M142.023,96.698c0.966-0.858,1.944-1.704,2.931-2.538l0.08,0.162  c0.202,0.326,0.357,0.326,0.564,1.186C143.01,96.138,143.012,96.568,142.023,96.698L142.023,96.698z"/>
<path style="fill:#ECF0F1;" d="M91.978,181.748c7.193-32.719,24.415-61.677,48.287-83.48c1.855,0.645,4.309,0.22,6.151,0.144  c0.662-1.226,1.072-2.294,2.247-2.742c0.461-0.163,1.024-0.203,1.789-0.163c0.103,0.611,0.257,1.226,0.409,1.841  c0,0.045,0.104,0.451,0.054,0.371c0.05-0.086,0.102,0.244,0.151,0.366c3.223-1.882,0.513-1.923,2.249-5.32  c-2.71-0.534-2.35-0.209-4.04-1.927c1.64-1.799,4.805-2.414,7.157-2.249c-0.156,1.639-0.919,1.597-0.306,2.987  c1.841-1.145,3.118-4.212,6.082-3.641c0.562,0.406,1.231,0.776,1.84,1.144c-1.535,1.434-3.833,1.516-5.826,2.334  c-0.87,8.885,2.812,1.434,1.584,7.531c2.197-0.162,4.347-1.759,5.161-3.396c-0.814-1.063-1.992-1.063-2.656-2.334  c0.516-1.637,1.616-2.875,3.168-3.613c1.052-0.501,2.309-0.767,3.732-0.767c16.252,0.123,8.533,0.859,13.547,3.153  c1.122,0.488,3.114,0.737,3.782,1.719c1.022,1.556,0.051,3.026,1.684,4.257c1.432,1.062,1.639-0.041,3.528,2.334  c-0.406,1.347-1.38,2.741-3.371,2.782c-2.76,0.04-1.125-1.841-4.09-1.556c0.053,2.781,2.813,3.848,0.255,5.36  c-2.248,1.352-0.819-0.488-2.504,0.453c-0.052,0.04-0.207,0.123-0.257,0.163c-0.1,0.081-0.203,0.204-0.255,0.285  c-0.306,0.329-0.564,0.614-0.816,0.903c-4.088-1.107-3.32-0.614-5.774-3.315c-0.92-1.022-1.072-1.271-2.71-1.145  c-1.022,0.037-2.349,0.484-3.324-0.411c1.996-2.496,2.967-0.081,5.879-1.556c0.513-0.248,3.732-2.742,4.245-3.316  c-0.87-1.962-0.105-0.329-1.379-1.596c-2.865-2.904-3.685-2.172-7.565-2.172c-1.818,2.095-3.181,4.68-5.161,5.818  c-1.196,0.689-2.618,0.842-4.499,0.04c0.868,3.52,3.114,0.819,3.321,5.074c-1.482-0.288-2.251-1.026-3.783-0.493  c-3.271,1.227-0.357,1.105-0.102,1.76c0,0.041,1.532,0.204,0,0.778c-1.689,0.611-0.255-0.33-3.527-2.253  c0.458-0.818,0.922-1.674,1.379-2.537c-2.657,0.818-5.981,2.129-9.095,3.64c-3.529,1.76-6.853,3.769-8.845,5.61  c-0.052,3.071,0.51,1.022,0.818,4.668c4.754,0.284,3.219,1.714,7.973,3.067c0.919,0.249,2.096,0.493,3.529,0.737  c0,2.293-2.046,4.011-0.618,6.387c3.324,2.329,3.425-2.212,4.245-5.116c11.249-2.35,5.829-5.658,8.736-11.844  c0.435-0.924,1.054-1.91,1.947-2.974c0.866,0.041,4.392,0.411,5.161,0.574c2.557,0.449,1.177,1.063,3.937,2.29  c-0.053,2.213-1.177,5.076,2.095,4.546c2.504-0.448,1.945-2.415,5.008-2.909c1.378,3.235,1.022,4.628,1.635,8.513  c7.363,2.868,4.089,5.197,2.657,10.561c0.923,0.448,1.89,0.86,2.864,1.268c-0.05,1.556-0.104,3.071-0.155,4.585  c-0.152,0-7.872-1.682-8.384-1.84c1.177-3.36,3.323-3.397,4.705-6.835c-2.76,0.488-2.558,1.347-4.55,1.962  c-1.786,0.534-3.169,0.163-5.059,0.411c-0.665,2.208-0.052-1.927,0.156,0.896c0.1,1.067,0.613,0.045-0.106,1.19  c-2.554-1.19-1.685-3.971-6.438-1.392c1.073,0.493,2.144,0.94,3.27,1.392c-0.152,3.149-0.408,0.774-1.072,2.863  c-1.639,5.361,4.446,2.045,6.03,1.76c-0.411,2.826-2.148,2.826-4.602,3.601c-2.707,0.818-3.524,1.926-5.673,2.419  c0-3.359-0.508-0.534,0.971-2.866c-2.148,0.203-3.732,1.185-5.775,2.049l-0.203,0.077c-2.628,1.072-3.026,1.231-3.324,4.587  c-2.248,0.692-4.855,1.475-6.438,3.112c-1.584,1.511-3.17,3.026-4.706,4.5c-0.152,0.123-0.255,0.244-0.353,0.325  c0.562,4.217,0,4.298-2.559,5.939c-2.147,1.387-2.862,1.347-4.855,3.107c-6.388,5.731-3.32,3.067-2.967,12.932  c-1.328-0.408-2.606-0.859-3.83-1.307c-0.974-6.55,0.354-4.379-4.907-5.893c-5.673-1.638-4.908,1.144-7.259,1.637  c-2.606,0.569-3.886-2.375-7.669,0.08c-2.094,1.431-4.086,2.371-4.598,4.908c-0.613,3.072-1.992,5.32-1.789,8.721  c0.359,9.21,8.739,9.739,10.887,5.442c1.428-2.863,1.075-4.419,5.724-3.683c0.462,2.456-0.255,4.257-0.87,6.139  c-0.408,1.103-1.534,3.107-0.97,4.627c3.323,1.348,3.424-1.19,7.821,1.43c0.306,4.377-1.992,9.29,1.379,11.828  c2.605,1.922,2.76,0.204,5.059-0.204c2.558-0.448,2.097,1.145,4.45,1.515c1.327-1.637,0.766-0.614,1.635-2.623  c1.534-3.474,1.941-1.84,5.572-3.966c0.354-0.204,0.66-0.411,1.022-0.656c0.408,0.859,0.868,1.678,1.275,2.496  c2.659-3.153,2.966-0.083,6.033,0.778c1.319,0.362,2.259,0.493,2.982,0.501c2.231,0.032,2.458-1.052,5.5,0.028  c0.359,0.167,0.819,0.288,1.231,0.411c0.051,0,0.203,0.081,0.203,0.163c0.053,0.041,0.206,0.163,0.255,0.208  c0.509,0.571,0.565,1.145,0.972,1.76c2.097,2.004,4.193,4.012,6.236,5.975c4.035,1.597,4.035-1.392,8.637,3.067  c1.941,1.841,1.072,1.804,2.147,4.175c0.156,0.37,0.46,0.737,0.665,1.19c0.408,1.105,0.87,2.167,1.33,3.23  c2.094,2.746,4.955,1.027,7.87,3.849c1.685,1.636,0.411,1.144,4.139,1.799c5.779,0.939,3.53,0.41,7.926,3.726  c1.686,1.226,2.094,0.529,3.678,1.593c2.199,3.072,1.635,6.388-0.202,9.088c-5.675,8.267-3.732,6.914-3.989,13.465  c-0.207,3.763-1.278,11.538-4.807,12.48c-12.827,3.605-5.367,6.101-8.737,12.444c-0.971,1.803-1.689,2.252-2.303,3.685  c-2.553,5.971-0.767,7.979-8.331,6.632c0.718,1.266,0.256,0.406,0.974,1.551c2.246,3.478,2.606,6.101-1.996,6.957  c-3.834,0.738-2.199,0-2.556,4.257c-1.483,0.614-2.147,0-3.118,0.982c1.328,2.455,0.102,0.411,2.352,1.803  c-0.411,1.348-0.718,2.659-1.075,3.967c-0.867,3.193-1.124,0.249-1.43,3.971c1.328,0.611,2.249,0.489,3.422,2.089  c-0.152,1.227-1.379,4.582-1.737,6.505c1.89,2.826,3.425,5.853,7.463,6.143c-0.053,2.369,0.509,2.125-1.535,2.615  c-1.738,0.411-5.416-1.226-6.953-2.044c-2.657-1.434-5.111-3.316-6.899-6.016c-1.022-1.516-0.613-0.778-1.688-2.208  c-1.942-2.498-1.174-3.646-1.737-5.325c-0.307-0.981-1.89-2.044-1.227-5.237c0.155-0.899,1.584-5.197-0.151-4.46  c-1.74,0.697,1.326,0.408-1.076,1.556c-0.564-1.556-1.021-3.848-1.328-5.771c-0.614-3.235-1.379-3.357-1.74-5.32  c-0.766-4.545,1.178-5.038-0.97-12.61c-1.41-5.01-0.844-16.87-2.334-22.955c-0.237-0.969-0.528-1.792-0.885-2.42  c-1.38-2.29-4.754-3.351-7.46-5.197c-0.155-0.035-0.257-0.08-0.306-0.162c-3.732-2.62-7.259-12.892-10.226-16.737  c-1.378-1.844-2.248-1.027-2.86-3.93c-0.664-2.661,0.357-2.208,1.227-4.424c-4.548-8.346,5.879-8.224,3.732-18.252  c-0.46-1.84-1.786-4.419-2.912-5.234c-2.148,0.94-1.126,1.47-2.252,3.271c-1.738-0.982-3.475-1.967-5.161-2.944  c-5.267-5.076-2.455-1.393-3.934-4.709c-3.17-6.957-6.186-3.066-9.968-6.504c-1.691-1.433-1.997-3.686-4.806-3.275  c-4.24,0.569-1.889,1.226-6.287-0.822c-3.732-1.76-7.615-3.804-10.223-6.179C94.244,185.855,95.758,186.334,91.978,181.748  L91.978,181.748z"/>
<g>
	<path style="fill:#FFFFFF;" d="M242.741,125.77c11.395,0,21.716,4.621,29.184,12.089s12.089,17.787,12.089,29.184   c0,11.395-4.62,21.716-12.089,29.184c-7.468,7.469-17.788,12.089-29.184,12.089c-11.397,0-21.716-4.621-29.184-12.089   s-12.089-17.788-12.089-29.184c0-11.397,4.622-21.716,12.089-29.184C221.025,130.392,231.344,125.77,242.741,125.77z    M262.5,147.284c-5.054-5.054-12.042-8.183-19.759-8.183c-7.715,0-14.702,3.129-19.759,8.183   c-5.054,5.057-8.183,12.044-8.183,19.759c0,7.717,3.129,14.705,8.183,19.759c5.057,5.054,12.044,8.184,19.759,8.184   c7.717,0,14.705-3.13,19.759-8.184c5.054-5.054,8.184-12.042,8.184-19.759C270.684,159.329,267.554,152.341,262.5,147.284z"/>
	<path style="fill:#FFFFFF;" d="M242.741,111.028c15.469,0,29.473,6.27,39.61,16.407c10.136,10.136,16.407,24.142,16.407,39.609   c0,15.469-6.271,29.473-16.407,39.61c-10.136,10.136-24.141,16.407-39.61,16.407c-15.467,0-29.472-6.271-39.61-16.407   c-10.136-10.136-16.406-24.141-16.406-39.61c0-15.467,6.27-29.472,16.406-39.609C213.268,117.298,227.274,111.028,242.741,111.028z    M277.637,132.148c-8.931-8.93-21.268-14.455-34.896-14.455c-13.626,0-25.965,5.526-34.896,14.455   c-8.931,8.931-14.455,21.269-14.455,34.896c0,13.627,5.525,25.966,14.455,34.896c8.931,8.931,21.269,14.455,34.896,14.455   c13.627,0,25.965-5.525,34.896-14.455c8.931-8.93,14.455-21.268,14.455-34.896C292.091,153.417,286.566,141.078,277.637,132.148z"/>
</g>
<path style="fill:#FED198;" d="M361.723,218.302l-0.002,0.001c-8.046-0.793-13.228,5.63-15.8,13.308l-15.952,47.674l-7.466-6.941  l-14.828-19.427l-25.947-46.042l-26.316-46.333c-4.125-7.258-13.39-10.124-20.412-5.928c-7.02,4.195-9.622,13.237-5.519,20.5  l44.987,79.524l-3.319,2.149l-9.708-19.002c-3.797-7.428-13.283-9.933-20.41-5.93c-7.126,4.012-9.312,13.077-5.521,20.505  l10.554,20.65l-3.756,2.433l-6.583-13.444c-3.667-7.486-13.389-10.121-20.405-5.928c-7.025,4.197-9.185,13.014-5.519,20.507  l7.395,15.109l-4.503,2.915l-4.084-7.54c-3.97-7.331-13.385-10.119-20.405-5.925c-7.024,4.198-9.49,13.17-5.52,20.502l8.459,15.621  l1.197,2.801l52.274,80.319c7.09,10.9,17.144,17.709,25.247,20.288c2.319,0.738,4.475,1.134,6.363,1.174l48.893,84.391  l91.644-51.807l-59.076-85.774c14.283-21.523,15.197-105.292,17.497-134.168C375.822,226.372,369.765,219.09,361.723,218.302z"/>
<path style="fill:#F0B97D;" d="M409.463,458.546l7.296-4.123l-59.076-85.774c14.284-21.524,15.196-105.292,17.497-134.168  c0.116-1.453,0.014-2.882-0.274-4.251c-5.913,40.51-6.711,115.274-23.268,138.57L409.463,458.546L409.463,458.546z"/>
<path style="fill:#FF5B62;" d="M396.421,408.125l-103.424,60.151L314.913,512l108.851-61.535L396.421,408.125L396.421,408.125z"/>
<g>
	<path style="fill:#FFFFFF;" d="M382.307,391.208l-97.407,55.994l11.28,19.093l97.406-55.991L382.307,391.208L382.307,391.208z"/>
	<path style="fill:#FFFFFF;" d="M314.802,472.189c-5.332,3.117-7.142,9.937-4.05,15.238c3.093,5.301,9.927,7.072,15.255,3.959   c5.33-3.118,7.142-9.941,4.052-15.242C326.962,470.845,320.132,469.076,314.802,472.189L314.802,472.189z"/>
	<path style="fill:#FFFFFF;" d="M233.302,170.557l6.309,11.471l17.396-9.828l-6.304-11.477   C245.741,151.692,227.529,162.117,233.302,170.557L233.302,170.557z M353.265,227.969L353.265,227.969l-3.808,15.231l19.513,5.174   l3.807-15.232C375.252,223.241,355.716,218.15,353.265,227.969L353.265,227.969z"/>
</g>
</svg>